<svg width="53" height="52" viewBox="0 0 53 52" fill="none" xmlns="http://www.w3.org/2000/svg">
<circle cx="26.144" cy="26" r="26" fill="#D3D3D3"/>
<path d="M40.7282 23.8117H39.1471V22.7685C39.1471 15.5988 33.3144 9.76611 26.1435 9.76611C18.9725 9.76611 13.1411 15.5988 13.1411 22.7685V23.8117H11.5611C10.2253 23.8117 9.14331 24.8937 9.14331 26.2295V31.5728C9.14331 32.9074 10.2253 33.9894 11.5611 33.9894H14.4392C14.9298 33.9894 15.3269 33.5923 15.3269 33.1017C15.3269 29.6577 15.3269 26.2125 15.3269 22.7685C15.3269 16.8035 20.1796 11.952 26.1447 11.952C32.1097 11.952 36.9624 16.8047 36.9624 22.7685V30.7519V34.0198C36.9624 36.3332 35.0801 38.2167 32.7655 38.2167H29.0483C28.6366 37.3423 27.7537 36.7339 26.7239 36.7339H25.5642C24.1422 36.7339 22.9885 37.8876 22.9885 39.3096C22.9885 40.7317 24.1422 41.8853 25.5642 41.8853H26.7239C27.7537 41.8853 28.6366 41.2757 29.0483 40.4026H32.7643C36.2835 40.4026 39.1458 37.5403 39.1458 34.021V33.9906H40.727C42.0616 33.9906 43.1448 32.9086 43.1448 31.574V26.2307C43.146 24.8937 42.064 23.8117 40.7282 23.8117Z" fill="#898989"/>
</svg>
