<svg width="31" height="30" viewBox="0 0 31 30" fill="none" xmlns="http://www.w3.org/2000/svg">
<path d="M29.8578 14.6296C30.5371 14.6296 31.0639 15.2074 30.994 15.8702C30.3589 21.8877 25.1609 26.5955 18.8556 26.5955C18.6534 26.5955 18.4582 26.5921 18.2631 26.5818H13.7024C13.576 26.5818 13.4736 26.6822 13.4739 26.8062L13.4752 28.0394C13.4761 28.902 12.5246 29.4422 11.7625 29.0116L3.14516 24.1449C2.38306 23.7145 2.38169 22.6362 3.14265 22.2039L11.7465 17.3156C12.5077 16.883 13.4608 17.4214 13.4617 18.2843L13.4631 19.5237C13.4631 19.6475 13.5655 19.7477 13.6914 19.7477L18.5437 19.7508C18.5682 19.7508 18.5924 19.7519 18.6166 19.7533C18.6952 19.7577 18.7741 19.7577 18.8554 19.7577C21.4171 19.7577 23.5574 17.9409 24.0025 15.5524C24.1019 15.0187 24.5738 14.6296 25.127 14.6296H29.8578Z" fill="#D3D3D3"/>
<path d="M17.8198 11.0405V9.8044C17.8198 9.68068 17.7174 9.58027 17.5913 9.58027H12.4275C9.86286 9.58027 7.72486 11.3968 7.2804 13.7854C7.181 14.3193 6.70911 14.7084 6.15587 14.7084H1.42514C0.745757 14.7084 0.219028 14.1306 0.288954 13.4678C0.923771 7.45036 6.12365 2.74273 12.4275 2.74273H17.5913C17.7174 2.74273 17.8198 2.64232 17.8198 2.5186V1.28543C17.8198 0.422754 18.772 -0.116503 19.5337 0.314947L28.1457 5.19135C28.9074 5.62258 28.9076 6.70087 28.1457 7.13232L19.5337 12.0112C18.772 12.4426 17.8196 11.9036 17.8196 11.0407L17.8198 11.0405Z" fill="#898989"/>
</svg>
