<svg width="29" height="28" viewBox="0 0 29 28" fill="none" xmlns="http://www.w3.org/2000/svg">
<path d="M14.75 0C7.01828 0 0.75 6.26828 0.75 14C0.75 21.7317 7.01828 28 14.75 28C22.4817 28 28.75 21.7317 28.75 14C28.75 6.26828 22.4817 0 14.75 0ZM14.75 4.26562C15.7439 4.26562 16.7155 4.56035 17.5419 5.11253C18.3683 5.66471 19.0124 6.44954 19.3927 7.36779C19.7731 8.28603 19.8726 9.29643 19.6787 10.2712C19.4848 11.246 19.0062 12.1414 18.3034 12.8442C17.6006 13.547 16.7052 14.0256 15.7304 14.2195C14.7556 14.4134 13.7452 14.3139 12.8269 13.9336C11.9087 13.5532 11.1238 12.9091 10.5717 12.0827C10.0195 11.2563 9.72477 10.2848 9.72477 9.29086C9.72477 7.95808 10.2542 6.6799 11.1966 5.73748C12.139 4.79507 13.4172 4.26562 14.75 4.26562ZM23.1511 21.0044C22.1246 22.2357 20.84 23.2263 19.3883 23.9061C17.9365 24.5859 16.353 24.9383 14.75 24.9383C13.147 24.9383 11.5635 24.5859 10.1117 23.9061C8.65997 23.2263 7.37538 22.2357 6.34891 21.0044C6.2101 20.838 6.11237 20.6414 6.06364 20.4303C6.0149 20.2192 6.01652 19.9996 6.06836 19.7892C6.54478 17.856 7.65253 16.1371 9.21617 14.9045C9.44941 14.7217 9.73618 14.6204 10.0325 14.6161C10.3289 14.6119 10.6184 14.7049 10.8568 14.881C11.8959 15.6537 13.2581 16.1219 14.7478 16.1219C16.2375 16.1219 17.5992 15.6537 18.6388 14.881C18.8772 14.7049 19.1668 14.6119 19.4631 14.6161C19.7594 14.6204 20.0462 14.7217 20.2795 14.9045C21.8431 16.1371 22.9508 17.856 23.4273 19.7892C23.4797 19.9992 23.482 20.2186 23.434 20.4297C23.3861 20.6408 23.2892 20.8376 23.1511 21.0044Z" fill="#FFFAF3"/>
</svg>
