<svg width="36" height="33" viewBox="0 0 36 33" fill="none" xmlns="http://www.w3.org/2000/svg">
<path fill-rule="evenodd" clip-rule="evenodd" d="M13.1316 22.612H22.7266C22.7326 22.612 22.7386 22.612 22.7438 22.612C23.4476 22.6177 23.9643 23.2429 23.8201 23.8932C23.6167 24.8107 21.937 26.6985 21.0117 26.6985H14.9091C13.9813 26.6985 12.2415 24.8091 12.0389 23.8916C11.8956 23.2412 12.4115 22.6168 13.1153 22.6112C13.1213 22.6112 13.1273 22.6112 13.1324 22.6112L13.1316 22.612ZM29.2541 20.6635C29.6961 20.6756 30.0858 20.9704 30.2102 21.5422C30.3733 22.3002 30.5638 23.8 29.6686 24.2949C28.9313 24.6998 27.3847 24.9905 26.559 25.1784C25.7659 25.3582 25.5676 24.6552 25.844 23.6041C26.3581 21.6531 27.5211 21.2409 28.7991 20.7461C28.9511 20.6853 29.1073 20.6594 29.2541 20.6643V20.6635ZM6.60241 20.6635C6.75004 20.6586 6.9054 20.6853 7.05818 20.7453C8.33706 21.2393 9.49921 21.6523 10.0125 23.6033C10.2897 24.6544 10.0889 25.3574 9.29836 25.1776C8.47181 24.9897 6.926 24.699 6.18871 24.2941C5.29349 23.8 5.48404 22.3002 5.64711 21.5414C5.76899 20.9704 6.15781 20.6756 6.60241 20.6635ZM27.4756 4.596C28.0902 4.596 28.6095 5.02765 28.6833 5.60345C29.0215 8.23548 29.2317 10.9088 29.2858 13.2703C29.3004 13.9134 28.7511 14.4414 28.0696 14.4414H7.82035C7.13886 14.4414 6.58954 13.9134 6.60413 13.2703C6.6582 10.9088 6.86849 8.23467 7.20666 5.60264C7.28048 5.02765 7.79975 4.596 8.41345 4.596H27.4756ZM9.08808 0.149902C7.15946 0.149902 6.01018 1.65704 5.60935 3.43467C5.11325 5.6237 4.73216 9.83656 4.47981 13.7166H3.58889L3.74167 10.7582C3.75969 10.4464 3.51078 10.1969 3.18033 10.1969C2.16581 10.1969 0.825991 10.1062 0.739302 11.7494L0.578798 14.8034C0.560774 15.1127 0.810542 15.3622 1.14013 15.3622H4.37768C4.22232 18.076 4.13821 20.4351 4.13821 21.5073V27.4679C4.13821 28.7677 4.39055 29.3443 5.62137 30.0165V31.2807C5.62137 31.7779 6.04795 32.1804 6.57495 32.1804H9.28377C9.81335 32.1804 10.2502 31.7803 10.2399 31.2807V30.0165H25.6183V31.2807C25.608 31.7803 26.0457 32.1804 26.5744 32.1804H29.2832C29.812 32.1804 30.2368 31.7803 30.2368 31.2807V30.0165C31.4676 29.3443 31.7191 28.7685 31.7191 27.4679V21.5073C31.7191 20.4351 31.635 18.076 31.4805 15.3622H34.7155C35.0485 15.3622 35.2974 15.1127 35.2768 14.8034L35.1197 11.7486C35.0331 10.1054 33.6932 10.1961 32.6787 10.1961C32.3448 10.1961 32.0985 10.4456 32.1139 10.7574L32.2684 13.7158H31.3784C31.126 9.83575 30.7449 5.62289 30.2488 3.43386C29.848 1.65704 28.6979 0.149902 26.7701 0.149902H9.08808Z" fill="#37C5F4"/>
</svg>
