<svg width="25" height="32" viewBox="0 0 25 32" fill="none" xmlns="http://www.w3.org/2000/svg">
<path d="M12.2797 0.650391C5.75722 0.650391 0.44873 5.81541 0.44873 12.1616C0.44873 20.6899 10.7469 30.8099 11.1892 31.2303C11.4876 31.5205 11.8888 31.6707 12.2797 31.6707C12.6707 31.6707 13.0719 31.5205 13.3702 31.2303C13.8126 30.8099 24.1108 20.6899 24.1108 12.1616C24.1108 5.81541 18.8023 0.650391 12.2797 0.650391ZM12.2797 16.7862C9.65635 16.7862 7.52676 14.7141 7.52676 12.1616C7.52676 9.60916 9.65635 7.53712 12.2797 7.53712C14.9031 7.53712 17.0327 9.60916 17.0327 12.1616C17.0327 14.7141 14.9031 16.7862 12.2797 16.7862Z" fill="#D3D3D3"/>
</svg>
