<svg width="32" height="33" viewBox="0 0 32 33" fill="none" xmlns="http://www.w3.org/2000/svg">
<path d="M12.001 18.4691H17.1664C17.6649 18.4691 18.0686 18.8663 18.0686 19.3556V25.1124C18.0686 25.6023 17.6643 25.9989 17.1664 25.9989H12.001C11.5025 25.9989 11.0988 25.6017 11.0988 25.1124V19.3556C11.0988 18.8657 11.5031 18.4691 12.001 18.4691Z" fill="#D3D3D3"/>
<path d="M18.0693 1.90412V1.08832C18.0693 0.570313 17.6414 0.149902 17.1141 0.149902H12.0539C11.5267 0.149902 11.0988 0.570313 11.0988 1.08832V1.90412C11.0988 2.19815 11.3414 2.43589 11.64 2.43589H17.5274C17.8267 2.43589 18.0693 2.19753 18.0693 1.90412Z" fill="#D3D3D3"/>
<path d="M31.2704 11.0612C31.5748 10.7102 31.5748 10.1941 31.2704 9.84375V11.0612ZM31.2704 9.84375C30.1421 8.54373 26.7571 4.64305 26.7571 4.64305C26.5756 4.43409 26.3101 4.31335 26.0306 4.31335H3.06489C1.5698 4.31335 0.357422 5.50389 0.357422 6.97345V13.9321C0.357422 15.4011 1.5698 16.5922 3.06489 16.5922H26.0306C26.3101 16.5922 26.5756 16.4721 26.7571 16.2625C26.7571 16.2625 30.1421 12.3612 31.2704 11.0612M20.9098 11.3909H8.28879C7.77302 11.3909 7.32729 11.0011 7.30437 10.495C7.28017 9.95761 7.71699 9.51406 8.25822 9.51406H20.8793C21.395 9.51406 21.8407 9.90381 21.8637 10.4099C21.8879 10.9473 21.4511 11.3909 20.9098 11.3909Z" fill="#D3D3D3"/>
<path d="M21.9802 27.8758H7.18848C5.7819 27.8758 4.64148 28.9962 4.64148 30.3782V31.2428C4.64148 31.7608 5.06938 32.1812 5.5966 32.1812H23.5721C24.0993 32.1812 24.5272 31.7608 24.5272 31.2428V30.3782C24.5272 28.9962 23.3868 27.8758 21.9802 27.8758Z" fill="#D3D3D3"/>
</svg>
