<svg width="63" height="64" viewBox="0 0 63 64" fill="none" xmlns="http://www.w3.org/2000/svg">
<path d="M30.2071 17.0001C21.5661 17.0001 14.5352 23.7296 14.5352 32.0001C14.5352 40.2706 21.5661 47.0001 30.2071 47.0001C38.848 47.0001 45.879 40.2706 45.879 32.0001C45.879 23.7296 38.848 17.0001 30.2071 17.0001Z" fill="url(#paint0_linear_1_180)"/>
<path d="M30.207 11C28.4745 11 27.0726 9.65674 27.0726 8V5C27.0726 3.34326 28.4745 2 30.207 2C31.9395 2 33.3414 3.34326 33.3414 5V8C33.3414 9.65674 31.9395 11 30.207 11Z" fill="url(#paint1_linear_1_180)"/>
<path d="M8.48987 23C7.95727 23 7.41855 22.8711 6.92574 22.5987L4.2107 21.0987C2.71085 20.2695 2.19662 18.4356 3.06286 17C3.9291 15.563 5.84523 15.0723 7.34508 15.9014L10.0601 17.4014C11.56 18.2305 12.0742 20.0645 11.208 21.5C10.6264 22.4624 9.57343 23 8.48987 23Z" fill="url(#paint2_linear_1_180)"/>
<path d="M5.78095 48.4999C4.69739 48.4999 3.64443 47.9623 3.06286 46.9999C2.19662 45.5644 2.71085 43.7304 4.2107 42.9013L6.92574 41.4013C8.41947 40.5736 10.3387 41.0644 11.208 42.4999C12.0742 43.9355 11.56 45.7694 10.0601 46.5986L7.34508 48.0986C6.85228 48.371 6.31355 48.4999 5.78095 48.4999Z" fill="url(#paint3_linear_1_180)"/>
<path d="M30.2071 62.0001C28.4747 62.0001 27.0728 60.6568 27.0728 59.0001V56.0001C27.0728 54.3433 28.4747 53.0001 30.2071 53.0001C31.9396 53.0001 33.3415 54.3433 33.3415 56.0001V59.0001C33.3415 60.6568 31.9396 62.0001 30.2071 62.0001Z" fill="url(#paint4_linear_1_180)"/>
<path d="M54.633 48.5001C54.1004 48.5001 53.5617 48.3712 53.0689 48.0972L50.3569 46.5972C48.8571 45.7681 48.3429 43.9341 49.2091 42.4986C50.0753 41.0645 51.9945 40.5694 53.4913 41.4029L56.2033 42.9029C57.7031 43.732 58.2174 45.566 57.3511 47.0015C56.7696 47.9625 55.7166 48.5001 54.633 48.5001Z" fill="url(#paint5_linear_1_180)"/>
<path d="M51.9272 22.9999C50.8436 22.9999 49.7907 22.4623 49.2091 21.4999C48.3429 20.0644 48.8571 18.2304 50.3569 17.4013L53.0689 15.9027C54.5626 15.0722 56.4818 15.5644 57.3511 17.0014C58.2174 18.4369 57.7031 20.2709 56.2033 21.1L53.4913 22.5986C52.9985 22.871 52.4598 22.9999 51.9272 22.9999Z" fill="url(#paint6_linear_1_180)"/>
<defs>
<linearGradient id="paint0_linear_1_180" x1="14.5352" y1="32.0001" x2="45.879" y2="32.0001" gradientUnits="userSpaceOnUse">
<stop stop-color="#37C5F4"/>
<stop offset="1" stop-color="#4378BD"/>
</linearGradient>
<linearGradient id="paint1_linear_1_180" x1="27.0735" y1="6.50043" x2="33.3398" y2="6.50043" gradientUnits="userSpaceOnUse">
<stop stop-color="#FFFAF3"/>
<stop offset="1" stop-color="#37C5F4"/>
</linearGradient>
<linearGradient id="paint2_linear_1_180" x1="2.64334" y1="19.2495" x2="11.6265" y2="19.2495" gradientUnits="userSpaceOnUse">
<stop stop-color="#FFFAF3"/>
<stop offset="1" stop-color="#37C5F4"/>
</linearGradient>
<linearGradient id="paint3_linear_1_180" x1="2.64334" y1="44.7499" x2="11.6265" y2="44.7499" gradientUnits="userSpaceOnUse">
<stop stop-color="#FFFAF3"/>
<stop offset="1" stop-color="#37C5F4"/>
</linearGradient>
<linearGradient id="paint4_linear_1_180" x1="27.0736" y1="57.5005" x2="33.3399" y2="57.5005" gradientUnits="userSpaceOnUse">
<stop stop-color="#FFFAF3"/>
<stop offset="1" stop-color="#37C5F4"/>
</linearGradient>
<linearGradient id="paint5_linear_1_180" x1="48.7896" y1="44.7493" x2="57.7697" y2="44.7493" gradientUnits="userSpaceOnUse">
<stop stop-color="#FFFAF3"/>
<stop offset="1" stop-color="#37C5F4"/>
</linearGradient>
<linearGradient id="paint6_linear_1_180" x1="48.7896" y1="19.2498" x2="57.7697" y2="19.2498" gradientUnits="userSpaceOnUse">
<stop stop-color="#FFFAF3"/>
<stop offset="1" stop-color="#37C5F4"/>
</linearGradient>
</defs>
</svg>
